<svg xmlns="http://www.w3.org/2000/svg" viewBox="0 0 32 32">
  <!-- Blue background square with rounded corners -->
  <rect width="32" height="32" rx="7" fill="#2563eb"/>
  <!-- Newspaper icon (scaled from 24x24 to fit in 32x32 with padding) -->
  <g transform="translate(7, 7) scale(0.75)" stroke="white" stroke-width="2.2" stroke-linecap="round" stroke-linejoin="round" fill="none">
    <path d="M4 22h16a2 2 0 0 0 2-2V4a2 2 0 0 0-2-2H8a2 2 0 0 0-2 2v16a2 2 0 0 1-2 2Zm0 0a2 2 0 0 1-2-2v-9c0-1.1.9-2 2-2h2"/>
    <path d="M18 14h-8"/>
    <path d="M15 18h-5"/>
    <path d="M10 6h8v4h-8V6Z"/>
  </g>
</svg>
